<svg xmlns="http://www.w3.org/2000/svg" width="24" height="24" viewBox="0 0 24 24" fill="none" stroke="#b0b0b0" stroke-width="1.75" stroke-linecap="round" stroke-linejoin="round"><path d="M12 3c1.2 0 2.2.8 2.5 2l1.8.3a1 1 0 0 1 .8 1.2l-.3 1.8c.9.7 1.5 1.7 1.5 2.9s-.6 2.2-1.5 2.9l.3 1.8a1 1 0 0 1-.8 1.2l-1.8.3c-.3 1.2-1.3 2-2.5 2s-2.2-.8-2.5-2l-1.8-.3a1 1 0 0 1-.8-1.2l.3-1.8A5.5 5.5 0 0 1 6 12c0-1.2.6-2.2 1.5-2.9l-.3-1.8a1 1 0 0 1 .8-1.2l1.8-.3C9.8 3.8 10.8 3 12 3z"/><circle cx="12" cy="12" r="2.5"/></svg>
